<svg fill="#3b434e" height="10" viewBox="0 0 6 10" width="6" xmlns="http://www.w3.org/2000/svg"><path d="m5.7154 4.6098-4.45013-4.450045c-.10292-.1030075-.24032-.159755-.386822-.159755-.146503 0-.2839.0567475-.386826.159755l-.327721.327639c-.2132501.213495-.2132501.560486 0 .773656l3.736879 3.73688-3.741025 3.74102c-.1029262.10301-.159755.24033-.159755.38675 0 .14658.0568288.2839.159755.38699l.327721.32756c.103007.103.240323.15975.386826.15975.146498 0 .283898-.05675.386828-.15975l4.45427-4.45411c.10317-.10334.15984-.2413.15951-.38797.00033-.14723-.05634-.28512-.15951-.38837z"/></svg>